<svg display="none" xmlns="http://www.w3.org/2000/svg">
    <symbol id="search" width="20px" height="22px">
        <path fill-rule="evenodd" d="M19.993 19.98l-1.044 1.047-5.767-5.784a6.588 6.588 0 01-1.094.798 8.506 8.506 0 01-1.243.598 7.07 7.07 0 01-1.367.374 8.322 8.322 0 01-1.417.125 7.72 7.72 0 01-3.157-.648 8.321 8.321 0 01-2.56-1.745 7.99 7.99 0 01-1.715-2.568 7.909 7.909 0 01-.622-3.116 8.04 8.04 0 012.337-5.734A7.984 7.984 0 018.061.984a8.01 8.01 0 015.668 2.343 8.403 8.403 0 011.74 2.568c.43.981.646 2.036.646 3.166 0 .466-.042.939-.124 1.421a7.31 7.31 0 01-.373 1.371 8.638 8.638 0 01-.597 1.246 6.613 6.613 0 01-.795 1.097l5.767 5.784zM.852 9.061a7.101 7.101 0 002.088 5.085 7.388 7.388 0 002.312 1.571 6.966 6.966 0 002.809.573c.994 0 1.922-.191 2.784-.573a7.465 7.465 0 002.287-1.571 7.5 7.5 0 001.566-2.293 6.843 6.843 0 00.572-2.792 7.02 7.02 0 00-.572-2.817 7.434 7.434 0 00-1.566-2.318 7.14 7.14 0 00-2.287-1.546 7.066 7.066 0 00-2.784-.549c-.994 0-1.931.184-2.809.549a7.086 7.086 0 00-3.853 3.864 7.286 7.286 0 00-.547 2.817z"/>
    </symbol>
    <symbol id="down" width="15px" height="9px">
        <path fill-rule="evenodd" d="M4.125 4.651L.75 1.276l.844-.844L7.5 6.339 13.406.362l.844.844-6.75 6.82-.844-.843-2.531-2.532z"/>
    </symbol>
    <symbol id="search-bg" width="58px" height="57px">
        <path fill-rule="evenodd"  d="M57.266 53.812l-2.954 2.954L38 40.453a18.609 18.609 0 01-3.094 2.25 24.254 24.254 0 01-3.515 1.688c-1.22.47-2.51.821-3.868 1.054-1.36.235-2.696.352-4.007.352-3.189 0-6.166-.609-8.93-1.828-2.766-1.218-5.181-2.859-7.242-4.922-2.064-2.061-3.681-4.476-4.852-7.242C1.319 29.04.734 26.109.734 23.016c0-3.186.585-6.164 1.758-8.93 1.171-2.764 2.788-5.179 4.852-7.242 2.061-2.061 4.476-3.679 7.242-4.852C17.35.821 20.327.234 23.516.234c3.093 0 6.022.587 8.789 1.758 2.764 1.173 5.179 2.791 7.242 4.852 2.061 2.063 3.702 4.478 4.922 7.242 1.217 2.766 1.828 5.744 1.828 8.93 0 1.313-.119 2.649-.352 4.007a20.452 20.452 0 01-1.054 3.867 24.535 24.535 0 01-1.688 3.516 18.64 18.64 0 01-2.25 3.094l16.313 16.312zM3.125 23.016c0 2.812.514 5.438 1.547 7.874a20.129 20.129 0 004.359 6.469 20.879 20.879 0 006.539 4.43c2.483 1.079 5.133 1.617 7.946 1.617 2.812 0 5.436-.538 7.875-1.617a21.163 21.163 0 006.468-4.43 21.178 21.178 0 004.43-6.469c1.077-2.436 1.617-5.062 1.617-7.874 0-2.813-.54-5.461-1.617-7.946a21.004 21.004 0 00-4.43-6.539 20.244 20.244 0 00-6.468-4.359c-2.439-1.031-5.063-1.547-7.875-1.547-2.813 0-5.463.516-7.946 1.547a19.999 19.999 0 00-6.539 4.359 19.988 19.988 0 00-4.359 6.539c-1.033 2.485-1.547 5.133-1.547 7.946z"/>
    </symbol>
    <symbol id="select" viewBox="0 0 60 61">
        <path fill-rule="evenodd"  d="M30 .547c4.124 0 8.016.773 11.672 2.32 3.656 1.547 6.842 3.681 9.562 6.398 2.718 2.721 4.852 5.907 6.399 9.563 1.547 3.656 2.32 7.548 2.32 11.672 0 4.126-.773 8.015-2.32 11.672-1.547 3.656-3.681 6.844-6.399 9.562-2.72 2.72-5.906 4.852-9.562 6.399-3.656 1.546-7.548 2.32-11.672 2.32-4.127 0-8.016-.774-11.672-2.32-3.656-1.547-6.844-3.679-9.562-6.399-2.721-2.718-4.852-5.906-6.399-9.562C.82 38.515.047 34.626.047 30.5c0-4.124.773-8.016 2.32-11.672 1.547-3.656 3.678-6.842 6.399-9.563 2.718-2.717 5.906-4.851 9.562-6.398C21.984 1.32 25.873.547 30 .547zm0 57.515c3.843 0 7.429-.725 10.758-2.179 3.326-1.453 6.258-3.397 8.789-5.836 2.437-2.531 4.381-5.46 5.836-8.789 1.452-3.327 2.179-6.913 2.179-10.758 0-3.843-.727-7.429-2.179-10.758-1.455-3.327-3.399-6.258-5.836-8.789-2.531-2.437-5.463-4.381-8.789-5.836-3.329-1.452-6.915-2.18-10.758-2.18-3.845 0-7.431.728-10.758 2.18-3.329 1.455-6.258 3.399-8.789 5.836-2.439 2.531-4.383 5.462-5.836 8.789-1.454 3.329-2.18 6.915-2.18 10.758 0 3.845.726 7.431 2.18 10.758 1.453 3.329 3.397 6.258 5.836 8.789 2.531 2.439 5.46 4.383 8.789 5.836 3.327 1.454 6.913 2.179 10.758 2.179zm15.047-38.25c.281-.373.679-.562 1.195-.562.514 0 .96.189 1.336.562.281.376.422.822.422 1.336 0 .517-.189.914-.563 1.196L26.906 42.312c-.094.189-.259.306-.492.352-.235.048-.446.07-.633.07-.281 0-.54-.022-.773-.07-.235-.046-.4-.163-.492-.352L16.5 34.297a1.819 1.819 0 01-.562-1.336c0-.514.186-.914.562-1.196.281-.373.679-.562 1.195-.562.514 0 .96.189 1.336.562l6.75 6.75 19.266-18.703z"/>
    </symbol>
    <symbol id="enjoy" viewBox="0 0 62 59">
        <path fill-rule="evenodd"  
        d="M61.586,28.656 C61.586,29.313 61.491,29.922 61.305,30.484 C61.116,31.047 60.834,31.563 60.461,32.031 C60.085,32.501 59.663,32.875 59.195,33.156 C58.725,33.437 58.211,33.672 57.648,33.859 C57.930,34.329 58.163,34.822 58.351,35.336 C58.538,35.852 58.633,36.439 58.633,37.094 C58.633,37.656 58.538,38.219 58.351,38.781 C58.163,39.344 57.930,39.860 57.648,40.328 C57.273,40.704 56.851,41.055 56.383,41.383 C55.912,41.712 55.445,41.969 54.977,42.156 C55.258,42.626 55.491,43.140 55.680,43.703 C55.866,44.266 55.961,44.828 55.961,45.391 C55.961,46.047 55.866,46.634 55.680,47.148 C55.491,47.665 55.258,48.157 54.977,48.625 C54.601,49.095 54.179,49.493 53.711,49.820 C53.241,50.150 52.726,50.361 52.164,50.453 C52.538,50.923 52.819,51.416 53.008,51.929 C53.195,52.446 53.289,53.033 53.289,53.687 C53.289,54.344 53.148,55.001 52.867,55.656 C52.586,56.313 52.210,56.876 51.742,57.344 C51.180,57.814 50.569,58.187 49.914,58.469 C49.257,58.750 48.554,58.890 47.805,58.890 L29.242,58.890 C28.585,58.890 27.836,58.798 26.992,58.609 C26.148,58.423 25.256,58.141 24.320,57.766 C23.382,57.484 22.444,57.133 21.508,56.711 C20.570,56.289 19.631,55.891 18.695,55.515 C17.570,55.047 16.467,54.580 15.391,54.109 C14.312,53.641 13.538,53.406 13.070,53.406 L0.273,53.406 L0.273,25.984 L1.398,25.844 C6.742,25.844 10.398,25.844 12.367,25.844 C13.211,25.844 13.984,25.751 14.687,25.562 C15.391,25.376 16.116,25.000 16.867,24.437 C17.711,23.969 18.671,23.312 19.750,22.469 C20.827,21.625 22.116,20.594 23.617,19.375 C26.522,16.938 28.234,13.890 28.750,10.234 C29.264,6.578 29.523,4.469 29.523,3.906 C29.523,3.344 29.664,2.805 29.945,2.289 C30.226,1.775 30.600,1.375 31.070,1.094 C31.538,0.720 32.030,0.461 32.547,0.320 C33.061,0.179 33.553,0.109 34.023,0.109 C34.773,0.109 35.522,0.204 36.273,0.390 C37.023,0.579 37.726,1.001 38.383,1.656 C39.038,2.313 39.554,3.181 39.930,4.258 C40.303,5.337 40.492,6.767 40.492,8.547 C40.492,10.142 40.373,11.665 40.141,13.117 C39.906,14.572 39.600,15.954 39.226,17.266 C38.945,18.579 38.594,19.775 38.172,20.851 C37.750,21.930 37.398,22.844 37.117,23.594 L56.242,23.594 C57.086,23.594 57.811,23.712 58.422,23.945 C59.031,24.180 59.617,24.532 60.180,25.000 C60.648,25.470 60.999,26.009 61.234,26.617 C61.467,27.228 61.586,27.907 61.586,28.656 L61.586,28.656 L61.586,28.656 ZM56.242,31.609 C56.710,31.609 57.132,31.539 57.508,31.398 C57.881,31.258 58.163,31.047 58.351,30.765 C58.633,30.484 58.866,30.181 59.055,29.852 C59.241,29.524 59.336,29.126 59.336,28.656 C59.336,27.907 59.055,27.250 58.492,26.687 C57.930,26.125 57.178,25.844 56.242,25.844 L47.805,25.844 C47.805,25.938 47.805,25.938 47.805,25.844 L33.320,25.844 L34.164,24.156 C36.788,17.687 38.102,12.484 38.102,8.547 C38.102,5.453 37.585,3.649 36.555,3.133 C35.522,2.618 34.678,2.359 34.023,2.359 C33.742,2.359 33.320,2.500 32.758,2.781 C32.195,3.062 31.914,3.438 31.914,3.906 C31.914,4.469 31.866,5.407 31.773,6.719 C31.679,8.033 31.398,9.531 30.930,11.219 C30.459,12.906 29.780,14.642 28.891,16.422 C27.999,18.204 26.757,19.751 25.164,21.062 C23.569,22.376 22.233,23.477 21.156,24.367 C20.077,25.259 19.069,25.984 18.133,26.547 C17.194,27.109 16.256,27.531 15.320,27.812 C14.382,28.094 13.398,28.234 12.367,28.234 C11.616,28.234 10.796,28.234 9.906,28.234 C9.014,28.234 8.100,28.234 7.164,28.234 C6.320,28.234 5.498,28.234 4.703,28.234 C3.905,28.234 3.227,28.234 2.664,28.234 L2.664,51.016 L13.070,51.016 C13.725,51.016 14.593,51.226 15.672,51.648 C16.748,52.070 18.084,52.611 19.680,53.265 C20.429,53.641 21.248,54.039 22.141,54.461 C23.030,54.883 23.898,55.234 24.742,55.515 C25.678,55.797 26.522,56.056 27.273,56.289 C28.023,56.524 28.680,56.641 29.242,56.641 L44.851,56.641 L47.805,56.641 C48.273,56.641 48.695,56.548 49.070,56.359 C49.444,56.172 49.773,55.937 50.055,55.656 C50.336,55.469 50.547,55.188 50.687,54.812 C50.828,54.439 50.898,54.063 50.898,53.687 C50.898,53.219 50.828,52.822 50.687,52.492 C50.547,52.165 50.336,51.859 50.055,51.578 C49.773,51.297 49.444,51.086 49.070,50.945 C48.695,50.805 48.273,50.734 47.805,50.734 L47.523,50.734 L47.523,48.344 L50.758,48.344 C51.131,48.344 51.507,48.273 51.883,48.133 C52.256,47.992 52.586,47.781 52.867,47.500 C53.054,47.219 53.241,46.891 53.430,46.516 C53.616,46.142 53.711,45.766 53.711,45.391 C53.711,45.017 53.616,44.641 53.430,44.266 C53.241,43.892 53.054,43.562 52.867,43.281 C52.586,43.094 52.256,42.907 51.883,42.719 C51.507,42.532 51.131,42.437 50.758,42.437 L49.773,42.437 L49.773,40.047 L53.289,40.047 C53.663,40.047 54.038,39.976 54.414,39.836 C54.788,39.695 55.117,39.484 55.398,39.203 C55.680,38.922 55.912,38.594 56.102,38.219 C56.288,37.845 56.383,37.469 56.383,37.094 C56.383,36.626 56.288,36.204 56.102,35.828 C55.912,35.454 55.680,35.173 55.398,34.984 C55.117,34.703 54.788,34.470 54.414,34.281 C54.038,34.094 53.663,34.000 53.289,34.000 L52.164,34.000 L52.164,31.609 L56.242,31.609 L56.242,31.609 L56.242,31.609 L56.242,31.609 L56.242,31.609 Z"/>
    </symbol>
    <symbol id="arc" viewBox="0 0 776.5 97.5">
        <path stroke="#FFF" stroke-dasharray="0, 5" stroke-linecap="round" opacity=".502" fill="none" d="M1.5 95.5s192.477-212.458 393.059 0c0 0 176.268-213.754 383.941 0"/>
    </symbol>
</svg>